<svg width="100" height="85" viewBox="0 0 100 85" fill="none" xmlns="http://www.w3.org/2000/svg">
<rect x="80" y="20" width="15" height="25" fill="#118A07"/>
<rect x="35" y="15" width="25" height="25" fill="#118A07"/>
<rect x="60" y="5" width="20" height="45" fill="#118A07"/>
<rect x="65" y="10" width="5" height="5" fill="#0C4F04"/>
<rect x="45" y="20" width="5" height="5" fill="#0C4F04"/>
<rect x="50" y="15" width="5" height="5" fill="#0C4F04"/>
<rect x="40" y="25" width="5" height="5" fill="#0C4F04"/>
<rect x="75" y="25" width="5" height="5" fill="#0C4F04"/>
<rect x="70" y="15" width="5" height="10" fill="#0C4F04"/>
<rect x="55" y="30" width="5" height="10" fill="#0C4F04"/>
<rect x="60" y="15" width="5" height="15" fill="#0C4F04"/>
<rect x="80" y="30" width="5" height="15" fill="#0C4F04"/>
<rect x="10" y="40" width="50" height="35" fill="#38D6FA"/>
<rect x="15" y="30" width="30" height="10" fill="#38D6FA"/>
<rect x="5" y="55" width="5" height="5" fill="#38D6FA"/>
<rect x="15" y="25" width="5" height="5" fill="#38D6FA"/>
<rect x="5" y="60" width="5" height="5" fill="#18AAE3"/>
<rect x="35" y="35" width="10" height="5" fill="#18AAE3"/>
<rect x="10" y="45" width="5" height="10" fill="#18AAE3"/>
<rect x="10" y="65" width="5" height="5" fill="#18AAE3"/>
<rect x="10" y="65" width="5" height="5" fill="#18AAE3"/>
<rect x="30" y="50" width="5" height="5" fill="#18AAE3"/>
<rect x="25" y="55" width="5" height="5" fill="#18AAE3"/>
<rect x="30" y="40" width="10" height="5" fill="#18AAE3"/>
<rect x="20" y="40" width="5" height="5" fill="#18AAE3"/>
<rect x="50" y="65" width="5" height="5" fill="#18AAE3"/>
<rect x="55" y="50" width="25" height="30" fill="#18AAE3"/>
<rect x="80" y="45" width="15" height="15" fill="#18AAE3"/>
<rect x="40" y="60" width="10" height="5" fill="white"/>
<rect x="90" y="55" width="5" height="5" fill="white"/>
<rect x="75" y="60" width="5" height="5" fill="white"/>
<rect x="70" y="75" width="5" height="5" fill="white"/>
<rect x="60" y="75" width="5" height="5" fill="white"/>
<rect x="40" y="65" width="5" height="5" fill="white"/>
<rect x="35" y="60" width="5" height="10" fill="#E90003"/>
<rect x="15" y="20" width="5" height="5" fill="black"/>
<rect x="20" y="70" width="30" height="5" fill="#18AAE3"/>
<rect x="60" width="15" height="5" fill="black"/>
<rect x="5" y="65" width="5" height="5" fill="black"/>
<rect x="30" y="20" width="5" height="5" fill="black"/>
<rect x="55" y="5" width="5" height="5" fill="black"/>
<rect x="90" y="20" width="5" height="5" fill="black"/>
<rect x="90" y="40" width="5" height="5" fill="black"/>
<rect x="55" y="50" width="5" height="5" fill="black"/>
<rect x="80" y="55" width="5" height="5" fill="black"/>
<rect x="70" y="60" width="5" height="5" fill="black"/>
<rect x="55" y="65" width="5" height="5" fill="black"/>
<rect x="60" y="60" width="5" height="5" fill="black"/>
<rect x="50" y="70" width="5" height="5" fill="black"/>
<rect x="35" y="55" width="10" height="5" fill="black"/>
<rect x="30" y="60" width="5" height="10" fill="black"/>
<rect x="45" y="35" width="5" height="5" fill="black"/>
<rect y="45" width="5" height="20" fill="black"/>
<rect x="5" y="40" width="5" height="15" fill="black"/>
<rect x="75" y="5" width="5" height="10" fill="black"/>
<rect x="60" y="40" width="5" height="10" fill="black"/>
<rect x="10" y="25" width="5" height="15" fill="black"/>
<rect x="95" y="25" width="5" height="15" fill="black"/>
<rect x="95" y="45" width="5" height="15" fill="black"/>
<rect x="75" y="65" width="5" height="15" fill="black"/>
<rect x="10" y="70" width="10" height="5" fill="black"/>
<rect x="20" y="25" width="15" height="5" fill="black"/>
<rect x="45" y="10" width="15" height="5" fill="black"/>
<rect x="75" y="45" width="15" height="5" fill="black"/>
<rect x="80" y="60" width="15" height="5" fill="black"/>
<rect x="65" y="50" width="15" height="5" fill="black"/>
<rect x="60" y="80" width="15" height="5" fill="black"/>
<rect x="20" y="75" width="40" height="5" fill="black"/>
<rect x="35" y="15" width="10" height="5" fill="black"/>
<rect x="50" y="40" width="10" height="5" fill="black"/>
<rect x="35" y="30" width="10" height="5" fill="black"/>
<rect x="80" y="15" width="10" height="5" fill="black"/>
</svg>
