<svg width="105" height="90" viewBox="0 0 105 90" fill="none" xmlns="http://www.w3.org/2000/svg">
<rect x="80.0002" y="10" width="20" height="25" fill="#DF0400"/>
<rect x="85.0005" y="5" width="5" height="5" fill="#DF0400"/>
<rect x="19.9998" y="5" width="25" height="45" fill="#FF7D27"/>
<rect x="5" y="19.9999" width="15" height="25" fill="#FF7D27"/>
<rect x="15.0002" y="10" width="5" height="10" fill="#FF7D27"/>
<rect x="19.9998" y="45" width="5" height="5" fill="#FF6209"/>
<rect x="35" y="75" width="35" height="30" transform="rotate(-90 35 75)" fill="#FF6209"/>
<rect x="64.9998" y="69.9999" width="15" height="5" transform="rotate(-90 64.9998 69.9999)" fill="#FF6209"/>
<rect x="49.9998" y="39.9999" width="10" height="5" transform="rotate(-90 49.9998 39.9999)" fill="#FF6209"/>
<rect x="40.0002" y="39.9999" width="10" height="5" transform="rotate(-90 40.0002 39.9999)" fill="#FF6209"/>
<rect x="45" y="39.9999" width="20" height="5" transform="rotate(-90 45 39.9999)" fill="#FF6209"/>
<rect x="49.9998" y="85" width="10" height="15" transform="rotate(-90 49.9998 85)" fill="#FF6209"/>
<rect x="74.9995" y="49.9999" width="5" height="15" fill="#FF6209"/>
<rect x="80.0002" y="45" width="5" height="15" fill="#FF7D27"/>
<rect x="85.0005" y="39.9999" width="5" height="10" fill="#FF7D27"/>
<rect x="30" y="25" width="5" height="15" fill="#FE7B27"/>
<rect x="30" y="25" width="5" height="15" fill="black"/>
<rect x="69.9998" y="50" width="5" height="25" fill="#FE7B27"/>
<rect x="69.9998" y="50" width="5" height="25" fill="black"/>
<rect y="25" width="5" height="15" fill="#FE7B27"/>
<rect y="25" width="5" height="15" fill="black"/>
<rect x="40.0002" width="5" height="20" transform="rotate(90 40.0002 0)" fill="#FE7B27"/>
<rect x="40.0002" width="5" height="20" transform="rotate(90 40.0002 0)" fill="black"/>
<rect x="24.9998" y="29.9999" width="5" height="10" fill="#FE7B27"/>
<rect x="24.9998" y="29.9999" width="5" height="10" fill="black"/>
<rect x="10" y="10.0001" width="5" height="10" fill="#FE7B27"/>
<rect x="10" y="10.0001" width="5" height="10" fill="black"/>
<rect x="45" y="10.0001" width="5" height="10" fill="#FE7B27"/>
<rect x="45" y="10.0001" width="5" height="10" fill="black"/>
<rect x="49.9998" y="20" width="5" height="10" fill="#FE7B27"/>
<rect x="49.9998" y="20" width="5" height="10" fill="black"/>
<rect x="55" y="29.9999" width="5" height="10" fill="#FE7B27"/>
<rect x="55" y="29.9999" width="5" height="10" fill="black"/>
<rect x="24.9998" y="55" width="5" height="10" fill="#FE7B27"/>
<rect x="24.9998" y="55" width="5" height="10" fill="black"/>
<rect x="45" y="79.9999" width="5" height="5" fill="#FE7B27"/>
<rect x="45" y="79.9999" width="5" height="5" fill="black"/>
<rect x="30" y="64.9999" width="5" height="5" fill="#FE7B27"/>
<rect x="30" y="64.9999" width="5" height="5" fill="black"/>
<rect x="19.9998" y="64.9999" width="5" height="5" fill="#FE7B27"/>
<rect x="19.9998" y="64.9999" width="5" height="5" fill="black"/>
<rect x="24.9998" y="69.9999" width="5" height="5" fill="#FE7B27"/>
<rect x="24.9998" y="69.9999" width="5" height="5" fill="white"/>
<rect x="64.9998" y="45.0001" width="5" height="10" fill="#FE7B27"/>
<rect x="64.9998" y="45.0001" width="5" height="10" fill="black"/>
<rect x="64.9998" y="69.9999" width="5" height="20" fill="#FE7B27"/>
<rect x="64.9998" y="69.9999" width="5" height="20" fill="black"/>
<rect x="10" y="50" width="5" height="10" transform="rotate(-90 10 50)" fill="#FE7B27"/>
<rect x="10" y="50" width="5" height="10" transform="rotate(-90 10 50)" fill="black"/>
<rect x="19.9998" y="55" width="5" height="15" transform="rotate(-90 19.9998 55)" fill="#FE7B27"/>
<rect x="19.9998" y="55" width="5" height="15" transform="rotate(-90 19.9998 55)" fill="black"/>
<rect x="40.0002" y="79.9999" width="5" height="15" transform="rotate(-90 40.0002 79.9999)" fill="#FE7B27"/>
<rect x="40.0002" y="79.9999" width="5" height="15" transform="rotate(-90 40.0002 79.9999)" fill="black"/>
<rect x="24.9998" y="75.0001" width="5" height="15" transform="rotate(-90 24.9998 75.0001)" fill="#FE7B27"/>
<rect x="24.9998" y="75.0001" width="5" height="15" transform="rotate(-90 24.9998 75.0001)" fill="black"/>
<rect x="5" y="45.0001" width="5" height="5" transform="rotate(-90 5 45.0001)" fill="#FE7B27"/>
<rect x="5" y="45.0001" width="5" height="5" transform="rotate(-90 5 45.0001)" fill="black"/>
<rect x="5" y="25" width="5" height="5" transform="rotate(-90 5 25)" fill="#FE7B27"/>
<rect x="5" y="25" width="5" height="5" transform="rotate(-90 5 25)" fill="black"/>
<rect x="15.0002" y="10.0001" width="5" height="5" transform="rotate(-90 15.0002 10.0001)" fill="#FE7B27"/>
<rect x="15.0002" y="10.0001" width="5" height="5" transform="rotate(-90 15.0002 10.0001)" fill="black"/>
<rect x="40.0002" y="10.0001" width="5" height="5" transform="rotate(-90 40.0002 10.0001)" fill="#FE7B27"/>
<rect x="40.0002" y="10.0001" width="5" height="5" transform="rotate(-90 40.0002 10.0001)" fill="black"/>
<rect x="60" y="45.0001" width="5" height="5" transform="rotate(-90 60 45.0001)" fill="#FE7B27"/>
<rect x="60" y="45.0001" width="5" height="5" transform="rotate(-90 60 45.0001)" fill="black"/>
<rect x="64.9998" y="85.0001" width="5" height="15" transform="rotate(90 64.9998 85.0001)" fill="#FE7B27"/>
<rect x="64.9998" y="85.0001" width="5" height="15" transform="rotate(90 64.9998 85.0001)" fill="black"/>
<rect x="45" y="60" width="10" height="5" fill="black"/>
<rect x="45" y="50" width="5" height="5" fill="black"/>
<rect x="40.0002" y="55" width="5" height="5" fill="black"/>
<rect x="80.0002" y="60" width="5" height="5" fill="black"/>
<rect x="74.9995" y="45.0001" width="5" height="5" fill="black"/>
<rect x="90.0002" y="5.00006" width="5" height="5" fill="black"/>
<rect x="85.0005" width="5" height="5" fill="black"/>
<rect x="95" y="35" width="5" height="5" fill="black"/>
<rect x="85.0005" y="50" width="5" height="10" fill="black"/>
<rect x="90.0002" y="35" width="5" height="15" fill="black"/>
<rect x="100" y="20" width="5" height="15" fill="black"/>
<rect x="95" y="10.0001" width="5" height="10" fill="black"/>
<rect x="80.0002" y="35" width="5" height="10" fill="black"/>
<rect x="80.0002" y="5.00006" width="5" height="15" fill="black"/>
<rect x="74.9995" y="20" width="5" height="15" fill="black"/>
<rect x="74.9995" y="64.9999" width="5" height="5" fill="black"/>
<rect x="24.9998" y="25.0001" width="5" height="5" fill="#FE7B27"/>
<rect x="24.9998" y="25.0001" width="5" height="5" fill="white"/>
<rect x="24.9998" y="65" width="5" height="5" fill="#FE7B27"/>
<rect x="24.9998" y="65" width="5" height="5" fill="white"/>
<rect x="49.9998" y="80.0001" width="5" height="5" fill="#FE7B27"/>
<rect x="49.9998" y="80.0001" width="5" height="5" fill="white"/>
<rect x="60" y="80.0001" width="5" height="5" fill="#FE7B27"/>
<rect x="60" y="80.0001" width="5" height="5" fill="white"/>
<rect x="30" y="55.0001" width="10" height="10" fill="#FFE301"/>
<rect x="34.9998" y="60.0001" width="10" height="10" fill="#FFE301"/>
<rect x="40" y="65" width="10" height="10" fill="#FFE301"/>
<rect x="85.0002" y="30" width="5" height="10" fill="#FFE301"/>
<rect x="90.0002" y="25.0001" width="5" height="10" fill="#FFE301"/>
</svg>
