<svg width="100" height="90" viewBox="0 0 100 90" fill="none" xmlns="http://www.w3.org/2000/svg">
<rect x="50" y="10" width="45" height="40" fill="#F02311"/>
<rect x="70" y="5" width="5" height="5" fill="#F02311"/>
<rect x="90" y="5" width="5" height="5" fill="#F02311"/>
<rect x="5" y="30" width="25" height="25" fill="#18AAE3"/>
<rect x="15" y="15" width="35" height="15" fill="#18AAE3"/>
<rect x="10" y="50" width="5" height="5" fill="#FFF8C9"/>
<rect x="25" y="70" width="5" height="5" fill="#FFF8C9"/>
<rect x="50" y="80" width="10" height="5" fill="#FFF8C9"/>
<rect x="25" y="50" width="5" height="5" fill="#FFF8C9"/>
<rect x="15" y="45" width="15" height="5" fill="#FFF8C9"/>
<rect x="25" y="35" width="10" height="5" fill="#FFF8C9"/>
<rect x="35" y="25" width="10" height="5" fill="#FFF8C9"/>
<rect x="30" y="30" width="20" height="10" fill="#FFF8C9"/>
<rect x="30" y="40" width="35" height="35" fill="#FFF8C9"/>
<rect x="20" y="40" width="10" height="5" fill="#FFF8C9"/>
<rect x="50" y="45" width="20" height="10" fill="#18AAE3"/>
<rect x="60" y="55" width="5" height="5" fill="#18AAE3"/>
<rect x="55" y="40" width="5" height="5" fill="#18AAE3"/>
<rect x="65" y="50" width="5" height="10" fill="#18AAE3"/>
<rect x="55" y="25" width="5" height="15" fill="#FFDD00"/>
<rect x="60" y="30" width="5" height="15" fill="#FFDD00"/>
<rect x="65" y="20" width="5" height="25" fill="#FFDD00"/>
<rect x="70" y="25" width="5" height="25" fill="#FFDD00"/>
<rect x="80" y="30" width="5" height="5" fill="#FFDD00"/>
<rect x="80" y="40" width="5" height="10" fill="#FFDD00"/>
<rect x="75" y="20" width="5" height="30" fill="#FFDD00"/>
<rect x="50" y="85" width="10" height="5" fill="black"/>
<rect x="75" y="5" width="5" height="10" fill="black"/>
<rect x="40" y="45" width="5" height="10" fill="black"/>
<rect x="55" y="10" width="10" height="5" fill="black"/>
<rect x="25" y="65" width="10" height="5" fill="black"/>
<rect x="40" y="60" width="10" height="5" fill="black"/>
<rect x="70" width="10" height="5" fill="black"/>
<rect x="90" width="10" height="5" fill="black"/>
<rect x="20" y="75" width="40" height="5" fill="black"/>
<rect x="45" y="5" width="5" height="20" fill="black"/>
<rect x="80" y="10" width="5" height="5" fill="black"/>
<rect x="85" y="5" width="5" height="5" fill="black"/>
<rect x="65" y="5" width="5" height="5" fill="black"/>
<rect x="20" y="70" width="5" height="5" fill="black"/>
<rect x="35" y="50" width="5" height="15" fill="black"/>
<rect x="50" y="5" width="5" height="5" fill="black"/>
<rect x="5" y="55" width="10" height="5" fill="black"/>
<rect x="20" y="55" width="5" height="5" fill="black"/>
<rect x="15" y="50" width="10" height="5" fill="black"/>
<rect y="40" width="5" height="15" fill="black"/>
<rect x="5" y="30" width="5" height="10" fill="black"/>
<rect x="10" y="20" width="5" height="10" fill="black"/>
<rect x="25" y="55" width="5" height="10" fill="black"/>
<rect x="15" y="15" width="5" height="5" fill="black"/>
<rect x="20" y="10" width="25" height="5" fill="black"/>
<rect x="35" y="35" width="10" height="5" fill="black"/>
<rect x="70" y="50" width="30" height="5" fill="black"/>
<rect x="50" y="25" width="5" height="20" fill="black"/>
<rect x="95" y="45" width="5" height="5" fill="black"/>
<rect x="30" y="40" width="5" height="5" fill="black"/>
<rect x="35" y="70" width="5" height="5" fill="black"/>
<rect x="50" y="55" width="5" height="5" fill="black"/>
<rect x="95" y="5" width="5" height="10" fill="black"/>
<rect x="65" y="55" width="5" height="15" fill="black"/>
<rect x="60" y="70" width="5" height="15" fill="black"/>
<rect x="45" y="70" width="5" height="15" fill="black"/>
<rect x="85" y="25" width="15" height="5" fill="black"/>
<rect x="95" y="30" width="5" height="5" fill="black"/>
<rect x="90" y="15" width="5" height="10" fill="black"/>
<rect x="90" y="35" width="5" height="10" fill="black"/>
</svg>
