<svg width="105" height="95" viewBox="0 0 105 95" fill="none" xmlns="http://www.w3.org/2000/svg">
<rect x="5" y="40" width="25" height="15" fill="#9A6A3A"/>
<rect x="20" y="55" width="25" height="10" fill="#9A6A3A"/>
<rect x="25" y="65" width="25" height="20" fill="#9A6A3A"/>
<rect x="55" y="70" width="15" height="20" fill="#9A6A3A"/>
<rect x="85" y="75" width="10" height="5" fill="#9A6A3A"/>
<rect x="30" y="30" width="5" height="10" fill="#9A6A3A"/>
<rect x="35" y="5" width="30" height="35" fill="#9A6A3A"/>
<rect x="60" y="15" width="35" height="30" fill="#9A6A3A"/>
<rect x="95" y="25" width="5" height="15" fill="#9A6A3A"/>
<rect x="35" y="40" width="55" height="35" fill="#9A6A3A"/>
<rect x="5" y="25" width="20" height="15" fill="#FFF8C9"/>
<rect x="40" y="40" width="20" height="15" fill="#FFF8C9"/>
<rect x="60" y="45" width="10" height="5" fill="#FFF8C9"/>
<rect x="60" y="50" width="15" height="5" fill="#FFF8C9"/>
<rect x="45" y="55" width="45" height="10" fill="#FFF8C9"/>
<rect x="55" y="65" width="40" height="10" fill="#FFF8C9"/>
<rect x="15" y="40" width="5" height="5" fill="#FFF8C9"/>
<rect x="10" y="15" width="15" height="10" fill="#FFF8C9"/>
<rect x="60" y="40" width="5" height="5" fill="black"/>
<rect x="5" y="50" width="5" height="5" fill="black"/>
<rect x="25" y="65" width="5" height="5" fill="black"/>
<rect x="45" y="60" width="5" height="5" fill="black"/>
<rect x="85" y="50" width="5" height="5" fill="black"/>
<rect x="90" y="45" width="5" height="5" fill="black"/>
<rect x="90" y="45" width="5" height="5" fill="black"/>
<rect x="95" y="40" width="5" height="5" fill="black"/>
<rect x="95" y="40" width="5" height="5" fill="black"/>
<rect x="40" y="55" width="5" height="5" fill="black"/>
<rect x="45" y="70" width="5" height="5" fill="black"/>
<rect x="55" y="85" width="5" height="5" fill="black"/>
<rect x="95" y="75" width="5" height="5" fill="black"/>
<rect x="70" y="85" width="5" height="5" fill="black"/>
<rect x="55" y="70" width="5" height="5" fill="black"/>
<rect x="40" y="75" width="5" height="10" fill="black"/>
<rect x="50" y="65" width="5" height="15" fill="black"/>
<rect x="65" y="70" width="5" height="15" fill="black"/>
<rect x="90" y="55" width="5" height="15" fill="black"/>
<rect x="100" y="20" width="5" height="20" fill="black"/>
<rect x="85" y="23" width="5" height="10" fill="black"/>
<rect x="80" y="23" width="5" height="10" fill="black"/>
<rect x="75" y="18" width="5" height="10" fill="black"/>
<rect x="20" y="5" width="5" height="15" fill="black"/>
<rect x="25" y="20" width="5" height="20" fill="black"/>
<rect x="30" y="40" width="5" height="15" fill="black"/>
<rect x="10" y="55" width="10" height="5" fill="black"/>
<rect x="20" y="60" width="10" height="5" fill="black"/>
<rect x="25" y="85" width="15" height="5" fill="black"/>
<rect x="5" y="20" width="5" height="5" fill="black"/>
<rect x="10" y="15" width="5" height="5" fill="black"/>
<rect x="40" y="25" width="10" height="5" fill="black"/>
<rect x="40" y="35" width="20" height="5" fill="black"/>
<rect x="30" y="25" width="5" height="5" fill="black"/>
<rect x="30" y="15" width="25" height="5" fill="black"/>
<rect x="65" y="10" width="25" height="5" fill="black"/>
<rect x="35" y="30" width="5" height="5" fill="black"/>
<rect x="50" y="30" width="5" height="5" fill="black"/>
<rect x="35" y="40" width="5" height="5" fill="black"/>
<rect x="55" y="20" width="5" height="5" fill="black"/>
<rect x="90" y="15" width="5" height="5" fill="black"/>
<rect x="95" y="20" width="5" height="5" fill="black"/>
<rect x="30" width="5" height="10" fill="black"/>
<rect x="35" y="10" width="5" height="5" fill="black"/>
<rect x="35" width="20" height="5" fill="black"/>
<rect x="55" y="5" width="10" height="5" fill="black"/>
<rect x="45" y="80" width="10" height="5" fill="black"/>
<rect x="70" y="75" width="15" height="5" fill="black"/>
<rect x="85" y="80" width="15" height="5" fill="black"/>
<rect x="85" y="70" width="10" height="5" fill="black"/>
<rect x="60" y="90" width="15" height="5" fill="black"/>
<rect x="15" y="10" width="5" height="5" fill="black"/>
<rect y="25" width="5" height="25" fill="black"/>
<rect x="20" y="70" width="5" height="15" fill="black"/>
<rect x="80" y="18" width="5" height="5" fill="white"/>
<rect x="30" y="20" width="5" height="5" fill="white"/>
</svg>
