<svg width="85" height="80" viewBox="0 0 85 80" fill="none" xmlns="http://www.w3.org/2000/svg">
<rect x="10" y="15" width="65" height="25" fill="#FF002B"/>
<rect x="20" y="5" width="45" height="10" fill="#FF002B"/>
<rect x="10" y="45" width="65" height="15" fill="white"/>
<rect x="15" y="60" width="55" height="10" fill="white"/>
<rect x="30" y="70" width="25" height="5" fill="white"/>
<rect x="75" y="40" width="5" height="5" fill="white"/>
<rect x="5" y="40" width="5" height="5" fill="white"/>
<rect x="35" y="35" width="15" height="15" fill="white"/>
<rect x="30" y="75" width="25" height="5" fill="black"/>
<rect x="10" y="25" width="15" height="5" transform="rotate(90 10 25)" fill="black"/>
<rect x="10" y="25" width="15" height="5" transform="rotate(90 10 25)" fill="black"/>
<rect x="10" y="25" width="15" height="5" transform="rotate(90 10 25)" fill="black"/>
<rect x="10" y="25" width="15" height="5" transform="rotate(90 10 25)" fill="black"/>
<rect x="80" y="25" width="15" height="5" transform="rotate(90 80 25)" fill="black"/>
<rect x="80" y="25" width="15" height="5" transform="rotate(90 80 25)" fill="black"/>
<rect x="80" y="25" width="15" height="5" transform="rotate(90 80 25)" fill="black"/>
<rect x="80" y="25" width="15" height="5" transform="rotate(90 80 25)" fill="black"/>
<rect x="80" y="45" width="15" height="5" transform="rotate(90 80 45)" fill="black"/>
<rect x="80" y="45" width="15" height="5" transform="rotate(90 80 45)" fill="black"/>
<rect x="80" y="45" width="15" height="5" transform="rotate(90 80 45)" fill="black"/>
<rect x="80" y="45" width="15" height="5" transform="rotate(90 80 45)" fill="black"/>
<rect x="85" y="35" width="15" height="5" transform="rotate(90 85 35)" fill="black"/>
<rect x="85" y="35" width="15" height="5" transform="rotate(90 85 35)" fill="black"/>
<rect x="85" y="35" width="15" height="5" transform="rotate(90 85 35)" fill="black"/>
<rect x="85" y="35" width="15" height="5" transform="rotate(90 85 35)" fill="black"/>
<rect x="30" width="25" height="5" fill="black"/>
<rect x="5" y="35" width="15" height="5" transform="rotate(90 5 35)" fill="black"/>
<rect x="5" y="35" width="15" height="5" transform="rotate(90 5 35)" fill="black"/>
<rect x="5" y="35" width="15" height="5" transform="rotate(90 5 35)" fill="black"/>
<rect x="5" y="35" width="15" height="5" transform="rotate(90 5 35)" fill="black"/>
<rect x="15" y="15" width="10" height="5" transform="rotate(90 15 15)" fill="black"/>
<rect x="15" y="15" width="10" height="5" transform="rotate(90 15 15)" fill="black"/>
<rect x="15" y="15" width="10" height="5" transform="rotate(90 15 15)" fill="black"/>
<rect x="15" y="15" width="10" height="5" transform="rotate(90 15 15)" fill="black"/>
<rect x="75" y="15" width="10" height="5" transform="rotate(90 75 15)" fill="black"/>
<rect x="75" y="15" width="10" height="5" transform="rotate(90 75 15)" fill="black"/>
<rect x="75" y="15" width="10" height="5" transform="rotate(90 75 15)" fill="black"/>
<rect x="75" y="15" width="10" height="5" transform="rotate(90 75 15)" fill="black"/>
<rect x="30" y="10" width="10" height="5" transform="rotate(-180 30 10)" fill="black"/>
<rect x="30" y="10" width="10" height="5" transform="rotate(-180 30 10)" fill="black"/>
<rect x="30" y="10" width="10" height="5" transform="rotate(-180 30 10)" fill="black"/>
<rect x="30" y="10" width="10" height="5" transform="rotate(-180 30 10)" fill="black"/>
<rect x="30" y="75" width="10" height="5" transform="rotate(-180 30 75)" fill="black"/>
<rect x="30" y="75" width="10" height="5" transform="rotate(-180 30 75)" fill="black"/>
<rect x="30" y="75" width="10" height="5" transform="rotate(-180 30 75)" fill="black"/>
<rect x="30" y="75" width="10" height="5" transform="rotate(-180 30 75)" fill="black"/>
<rect x="65" y="75" width="10" height="5" transform="rotate(-180 65 75)" fill="black"/>
<rect x="65" y="75" width="10" height="5" transform="rotate(-180 65 75)" fill="black"/>
<rect x="65" y="75" width="10" height="5" transform="rotate(-180 65 75)" fill="black"/>
<rect x="65" y="75" width="10" height="5" transform="rotate(-180 65 75)" fill="black"/>
<rect x="65" y="10" width="10" height="5" transform="rotate(-180 65 10)" fill="black"/>
<rect x="65" y="10" width="10" height="5" transform="rotate(-180 65 10)" fill="black"/>
<rect x="65" y="10" width="10" height="5" transform="rotate(-180 65 10)" fill="black"/>
<rect x="65" y="10" width="10" height="5" transform="rotate(-180 65 10)" fill="black"/>
<rect x="20" y="10" width="5" height="5" transform="rotate(90 20 10)" fill="black"/>
<rect x="20" y="10" width="5" height="5" transform="rotate(90 20 10)" fill="black"/>
<rect x="20" y="10" width="5" height="5" transform="rotate(90 20 10)" fill="black"/>
<rect x="20" y="10" width="5" height="5" transform="rotate(90 20 10)" fill="black"/>
<rect x="15" y="60" width="5" height="5" transform="rotate(90 15 60)" fill="black"/>
<rect x="15" y="60" width="5" height="5" transform="rotate(90 15 60)" fill="black"/>
<rect x="15" y="60" width="5" height="5" transform="rotate(90 15 60)" fill="black"/>
<rect x="15" y="60" width="5" height="5" transform="rotate(90 15 60)" fill="black"/>
<rect x="20" y="65" width="5" height="5" transform="rotate(90 20 65)" fill="black"/>
<rect x="20" y="65" width="5" height="5" transform="rotate(90 20 65)" fill="black"/>
<rect x="20" y="65" width="5" height="5" transform="rotate(90 20 65)" fill="black"/>
<rect x="20" y="65" width="5" height="5" transform="rotate(90 20 65)" fill="black"/>
<rect x="75" y="60" width="5" height="5" transform="rotate(90 75 60)" fill="black"/>
<rect x="75" y="60" width="5" height="5" transform="rotate(90 75 60)" fill="black"/>
<rect x="75" y="60" width="5" height="5" transform="rotate(90 75 60)" fill="black"/>
<rect x="75" y="60" width="5" height="5" transform="rotate(90 75 60)" fill="black"/>
<rect x="70" y="65" width="5" height="5" transform="rotate(90 70 65)" fill="black"/>
<rect x="70" y="65" width="5" height="5" transform="rotate(90 70 65)" fill="black"/>
<rect x="70" y="65" width="5" height="5" transform="rotate(90 70 65)" fill="black"/>
<rect x="70" y="65" width="5" height="5" transform="rotate(90 70 65)" fill="black"/>
<rect x="70" y="10" width="5" height="5" transform="rotate(90 70 10)" fill="black"/>
<rect x="70" y="10" width="5" height="5" transform="rotate(90 70 10)" fill="black"/>
<rect x="70" y="10" width="5" height="5" transform="rotate(90 70 10)" fill="black"/>
<rect x="70" y="10" width="5" height="5" transform="rotate(90 70 10)" fill="black"/>
<rect x="10" y="45" width="15" height="5" transform="rotate(90 10 45)" fill="black"/>
<rect x="10" y="45" width="15" height="5" transform="rotate(90 10 45)" fill="black"/>
<rect x="10" y="45" width="15" height="5" transform="rotate(90 10 45)" fill="black"/>
<rect x="10" y="45" width="15" height="5" transform="rotate(90 10 45)" fill="black"/>
<rect x="50" y="55" width="15" height="5" transform="rotate(-180 50 55)" fill="black"/>
<rect x="50" y="55" width="15" height="5" transform="rotate(-180 50 55)" fill="black"/>
<rect x="50" y="55" width="15" height="5" transform="rotate(-180 50 55)" fill="black"/>
<rect x="50" y="55" width="15" height="5" transform="rotate(-180 50 55)" fill="black"/>
<rect x="35" y="35" width="15" height="5" transform="rotate(90 35 35)" fill="black"/>
<rect x="35" y="35" width="15" height="5" transform="rotate(90 35 35)" fill="black"/>
<rect x="35" y="35" width="15" height="5" transform="rotate(90 35 35)" fill="black"/>
<rect x="35" y="35" width="15" height="5" transform="rotate(90 35 35)" fill="black"/>
<rect x="55" y="35" width="15" height="5" transform="rotate(90 55 35)" fill="black"/>
<rect x="55" y="35" width="15" height="5" transform="rotate(90 55 35)" fill="black"/>
<rect x="55" y="35" width="15" height="5" transform="rotate(90 55 35)" fill="black"/>
<rect x="55" y="35" width="15" height="5" transform="rotate(90 55 35)" fill="black"/>
<rect x="50" y="35" width="15" height="5" transform="rotate(-180 50 35)" fill="black"/>
<rect x="50" y="35" width="15" height="5" transform="rotate(-180 50 35)" fill="black"/>
<rect x="50" y="35" width="15" height="5" transform="rotate(-180 50 35)" fill="black"/>
<rect x="50" y="35" width="15" height="5" transform="rotate(-180 50 35)" fill="black"/>
<rect x="10" y="40" width="20" height="5" fill="black"/>
<rect x="55" y="40" width="20" height="5" fill="black"/>
<rect x="70" y="45" width="5" height="15" fill="#BFBFBF"/>
<rect x="65" y="50" width="5" height="15" fill="#BFBFBF"/>
<rect x="60" y="55" width="5" height="15" fill="#BFBFBF"/>
<rect x="55" y="60" width="5" height="10" fill="#BFBFBF"/>
<rect x="50" y="65" width="5" height="10" fill="#BFBFBF"/>
<rect x="50" y="70" width="5" height="10" transform="rotate(90 50 70)" fill="#BFBFBF"/>
</svg>
