<svg width="105" height="85" viewBox="0 0 105 85" fill="none" xmlns="http://www.w3.org/2000/svg">
<rect x="60" y="55" width="5" height="5" fill="#0999FF"/>
<rect x="10" y="15" width="50" height="40" fill="#13B0FF"/>
<rect x="50" y="65" width="15" height="10" fill="#13B0FF"/>
<rect x="65" y="60" width="5" height="10" fill="#13B0FF"/>
<rect x="50" y="75" width="15" height="5" fill="#0999FF"/>
<rect x="10" y="35" width="40" height="10" fill="#0999FF"/>
<rect x="75" y="5" width="25" height="25" fill="#13B0FF"/>
<rect x="10" y="5" width="35" height="10" fill="#13B0FF"/>
<rect x="90" y="10" width="10" height="5" fill="#0999FF"/>
<rect x="80" y="20" width="5" height="10" fill="#0999FF"/>
<rect x="70" y="20" width="5" height="5" fill="#0999FF"/>
<rect x="75" y="25" width="5" height="10" fill="#0999FF"/>
<rect x="5" y="25" width="5" height="5" fill="#13B0FF"/>
<rect x="45" y="20" width="5" height="10" fill="#0999FF"/>
<rect x="90" y="15" width="10" height="15" fill="#0999FF"/>
<rect x="85" y="15" width="5" height="5" fill="#0999FF"/>
<rect x="5" y="30" width="5" height="5" fill="#0999FF"/>
<rect x="50" y="50" width="5" height="5" fill="#0999FF"/>
<rect x="55" y="45" width="5" height="5" fill="#0999FF"/>
<rect x="30" y="5" width="5" height="5" fill="#0999FF"/>
<rect x="40" y="30" width="10" height="5" fill="#0999FF"/>
<rect x="40" y="10" width="5" height="5" fill="#0999FF"/>
<rect x="25" y="50" width="10" height="5" fill="#FDFE9E"/>
<rect x="30" y="55" width="25" height="10" fill="#FDFE9E"/>
<rect x="65" y="35" width="10" height="25" fill="#8C500A"/>
<rect x="55" y="20" width="15" height="20" fill="#976A0D"/>
<rect x="30" y="30" width="5" height="10" fill="#8C500A"/>
<rect x="50" y="15" width="5" height="10" fill="#8C500A"/>
<rect x="35" y="60" width="5" height="5" fill="#8C500A"/>
<rect x="55" y="60" width="5" height="5" fill="#8C500A"/>
<rect x="45" y="65" width="10" height="5" fill="#8C500A"/>
<rect x="65" y="25" width="5" height="5" fill="#8C500A"/>
<rect x="60" y="20" width="5" height="5" fill="#8C500A"/>
<rect x="5" y="20" width="5" height="5" fill="#8C500A"/>
<rect x="60" y="40" width="5" height="15" fill="white"/>
<rect x="25" y="60" width="5" height="5" fill="white"/>
<rect x="50" y="25" width="5" height="10" fill="white"/>
<rect x="55" y="35" width="5" height="5" fill="white"/>
<rect x="25" y="25" width="5" height="5" fill="white"/>
<rect x="45" y="15" width="5" height="5" fill="black"/>
<rect x="55" y="50" width="5" height="5" fill="black"/>
<rect x="75" y="5" width="5" height="15" fill="black"/>
<rect x="95" y="25" width="5" height="5" fill="black"/>
<rect x="95" y="5" width="5" height="5" fill="black"/>
<rect x="90" y="15" width="5" height="5" fill="black"/>
<rect x="100" y="10" width="5" height="15" fill="black"/>
<rect x="90" y="30" width="5" height="5" fill="black"/>
<rect x="85" y="20" width="5" height="15" fill="black"/>
<rect x="75" y="35" width="5" height="25" fill="black"/>
<rect x="70" y="60" width="5" height="10" fill="black"/>
<rect x="35" y="50" width="5" height="5" fill="black"/>
<rect x="65" y="70" width="5" height="10" fill="black"/>
<rect x="35" y="50" width="5" height="5" fill="black"/>
<rect x="40" y="40" width="10" height="5" fill="black"/>
<rect x="30" y="25" width="5" height="5" fill="black"/>
<rect x="25" y="30" width="5" height="10" fill="black"/>
<rect x="45" y="10" width="10" height="5" fill="black"/>
<rect x="35" y="5" width="10" height="5" fill="black"/>
<rect x="5" y="10" width="5" height="10" fill="black"/>
<rect x="10" y="5" width="5" height="5" fill="black"/>
<rect y="20" width="5" height="15" fill="black"/>
<rect x="5" y="35" width="5" height="5" fill="black"/>
<rect x="10" y="40" width="10" height="5" fill="black"/>
<rect x="20" y="50" width="5" height="20" fill="black"/>
<rect x="55" y="15" width="20" height="5" fill="black"/>
<rect x="30" y="60" width="5" height="5" fill="black"/>
<rect x="80" width="15" height="5" fill="black"/>
<rect x="25" y="55" width="5" height="5" fill="black"/>
<rect x="15" y="50" width="5" height="5" fill="black"/>
<rect x="45" y="75" width="5" height="5" fill="black"/>
<rect x="20" y="45" width="20" height="5" fill="black"/>
<rect x="15" width="20" height="5" fill="black"/>
<rect x="45" y="70" width="10" height="5" fill="black"/>
<rect x="45" y="80" width="25" height="5" fill="black"/>
<rect x="40" y="55" width="20" height="5" fill="black"/>
<rect x="45" y="45" width="5" height="5" fill="black"/>
<rect x="50" y="35" width="5" height="5" fill="black"/>
<rect x="60" y="60" width="5" height="5" fill="#13B0FF"/>
<rect x="65" y="20" width="5" height="5" fill="black"/>
<rect x="60" y="60" width="5" height="15" fill="black"/>
<rect x="70" y="25" width="5" height="10" fill="black"/>
<rect x="25" y="65" width="20" height="5" fill="black"/>
<rect x="80" y="30" width="5" height="10" fill="black"/>
<rect x="10" y="45" width="5" height="10" fill="black"/>
<rect x="25" y="65" width="20" height="5" fill="black"/>
</svg>
